<svg xmlns:xlink="http://www.w3.org/1999/xlink" id="1" xmlns="http://www.w3.org/2000/svg" x="0" y="0" viewBox="0 0 875 170.2" xml:space="preserve" width="875" height="170.2"><defs><linearGradient id="logoSVGID_1_" gradientUnits="userSpaceOnUse" x1="160.552" y1="127.199" x2="12.166" y2="44.295"><stop offset="0" style="stop-color: rgb(47, 48, 214);"></stop><stop offset="1" style="stop-color: rgb(128, 125, 255);"></stop></linearGradient><linearGradient id="logoSVGID_1_" gradientUnits="userSpaceOnUse" x1="160.552" y1="127.199" x2="12.166" y2="44.295"><stop offset="0" style="stop-color: rgb(47, 48, 214);"></stop><stop offset="1" style="stop-color: rgb(128, 125, 255);"></stop></linearGradient></defs><style>.svgesurveynew{fill:#fff}</style><linearGradient id="logoSVGID_1_" gradientUnits="userSpaceOnUse" x1="160.552" y1="127.199" x2="12.166" y2="44.295"><stop offset="0" style="stop-color: rgb(47, 48, 214);"></stop><stop offset="1" style="stop-color: rgb(128, 125, 255);"></stop></linearGradient><circle cx="85" cy="85" r="85" style="" fill="url(&quot;#logoSVGID_1_&quot;)"></circle><path class="svgesurveynew" d="M53.1 123.5c-3.6 0-6.4-2.9-6.4-6.4 0-3.6 2.9-6.4 6.4-6.4 3.6 0 6.4 2.9 6.4 6.4 0 3.5-2.9 6.4-6.4 6.4zM46.6 85c0-3.5 2.9-6.4 6.4-6.4s6.4 2.9 6.4 6.4-2.9 6.4-6.4 6.4-6.4-2.9-6.4-6.4zM53.1 59.3c-3.6 0-6.4-2.9-6.4-6.4 0-3.6 2.9-6.4 6.4-6.4 3.6 0 6.4 2.9 6.4 6.4 0 3.5-2.9 6.4-6.4 6.4zM117.3 123.5H77.9c-3.5 0-6.4-2.9-6.4-6.4 0-3.6 2.9-6.4 6.4-6.4h39.4c3.5 0 6.4 2.9 6.4 6.4 0 3.5-2.9 6.4-6.4 6.4zM71.5 85c0-3.5 2.9-6.4 6.4-6.4h17.8c3.5 0 6.4 2.9 6.4 6.4s-2.9 6.4-6.4 6.4H77.9c-3.6 0-6.4-2.9-6.4-6.4zM117.3 59.3H77.9c-3.5 0-6.4-2.9-6.4-6.4 0-3.6 2.9-6.4 6.4-6.4h39.4c3.5 0 6.4 2.9 6.4 6.4 0 3.5-2.9 6.4-6.4 6.4zM257.9 40.3c-26.2 0-43.8 18.3-43.8 45.5 0 27.4 18.1 45.1 46 45.1 15.6 0 28.5-5.8 36.5-16.3l.1-.1-10.4-9.4-.1.2c-3.9 5.2-11.4 11.5-24.8 11.5-17 0-28.2-9.9-30-26.4h65.9v-.2s.8-3.3.8-8.4c0-25.3-15.8-41.5-40.2-41.5zm0 14.2c13.8 0 22.8 9.3 23.1 23.6h-49.1c2.5-14.6 12.5-23.6 26-23.6zM311.2 77.6h33.2v12.7h-33.2zM504.3 87.6c0 11.7-7.7 29.1-24.2 29.1-12.7 0-20.3-7.9-20.3-21.2V41.4h-17v54.1c0 21.5 13.5 35.4 34.5 35.4 13.2 0 23.5-6.7 29.3-18.9.1 2.9.9 12 2.2 18.2v.2l12.3-.6V41.4h-16.8v46.2zM576.1 40.3c-15.5 0-21.7 13.1-24 21.1h-.4c0-4.4-.8-13.9-2.2-20.3v-.2l-11.9.6v88.3h16.8V83.5c0-17.6 10.5-26.8 20.9-26.8 3.1 0 5.9.7 8.1 2l.2.1 4.2-17-.2-.1c-3.5-.9-7.7-1.4-11.5-1.4zM647.6 103c-1.5 3.8-2 5.5-2.8 9.6-.7-3.5-1.1-5-3-9.6l-24.3-61.6h-18.9l36.5 88.4h18.2l36.1-88.4h-17.2L647.6 103zM738.1 40.3c-26.2 0-43.8 18.3-43.8 45.5 0 27.4 18.1 45.1 46 45.1 15.6 0 28.5-5.8 36.5-16.3l.1-.1-10.4-9.4-.1.2c-3.9 5.2-11.4 11.5-24.8 11.5-17 0-28.2-9.9-30-26.4h65.9v-.2s.8-3.3.8-8.4c.1-25.3-15.7-41.5-40.2-41.5zm0 14.2c13.8 0 22.8 9.3 23.1 23.6h-49.1c2.5-14.6 12.5-23.6 26-23.6zM378.8 57c1.4-1 4-2.4 9.8-2.6h1.3c9.9 0 17.5 3.6 20.3 5.2 2.9 1.6 5.6 3.5 8 5.8l.1.1L428.7 54l-.2-.1c-3.1-2.6-6.3-4.8-9.8-6.7-8.4-4.6-18.3-7.1-27.7-7.1-6.4 0-12.4 1.1-17.7 3.3-2.5 1-4.5 2.1-6.3 3.5-1.1.8-10.4 8.1-10.6 19.4-.1 5.6 2 9.8 2.6 11 5.5 9.8 18.6 12.9 30.1 15.6 11.1 2.6 20.8 4.9 20.8 12.5 0 7.1-7 11.2-19.2 11.2-12.4 0-23.5-6.3-28-10.6l-.1-.1-10.3 11.5.2.1c4.9 4 16.3 13.3 38.1 13.3 13.3 0 24.1-3.5 30.5-9.9 4.1-4.2 6.1-9.3 6.1-15.3-.3-18.8-17-22.4-31.8-25.5-11.6-2.5-21.7-4.6-21.7-13.6 0-.7.1-2.6 1-4.6.8-1.9 2.2-3.5 4.1-4.9zM857.8 41.4l-27.4 69.9-27.3-69.9h-18.9l37.4 90.4c-4.9 12.8-9.8 25.6-14.6 38.4h16.5c17.2-42.9 34.3-85.9 51.5-128.8h-17.2z"></path></svg>