<?xml version="1.0" encoding="utf-8"?>
<!-- Generator: Adobe Illustrator 26.0.0, SVG Export Plug-In . SVG Version: 6.00 Build 0)  -->
<svg version="1.1" id="Calque_1" xmlns="http://www.w3.org/2000/svg" xmlns:xlink="http://www.w3.org/1999/xlink" x="0px" y="0px"
	 viewBox="0 0 875 170.2" style="enable-background:new 0 0 875 170.2;" xml:space="preserve">
<style type="text/css">
	.st0{fill:url(#SVGID_1_);}
	.st1{fill:#FFFFFF;}
	.st2{fill:#111B4C;}
</style>
<g>
	<linearGradient id="SVGID_1_" gradientUnits="userSpaceOnUse" x1="160.552" y1="127.1993" x2="12.1662" y2="44.2947">
		<stop  offset="0" style="stop-color:#2F30D6"/>
		<stop  offset="1" style="stop-color:#807DFF"/>
	</linearGradient>
	<circle class="st0" cx="85" cy="85" r="85"/>
	<path class="st1" d="M53.1,123.5L53.1,123.5c-3.6,0-6.4-2.9-6.4-6.4c0-3.6,2.9-6.4,6.4-6.4c3.6,0,6.4,2.9,6.4,6.4
		C59.5,120.6,56.6,123.5,53.1,123.5z"/>
	<path class="st1" d="M46.6,85c0-3.5,2.9-6.4,6.4-6.4s6.4,2.9,6.4,6.4s-2.9,6.4-6.4,6.4S46.6,88.5,46.6,85z"/>
	<path class="st1" d="M53.1,59.3L53.1,59.3c-3.6,0-6.4-2.9-6.4-6.4c0-3.6,2.9-6.4,6.4-6.4c3.6,0,6.4,2.9,6.4,6.4
		C59.5,56.4,56.6,59.3,53.1,59.3z"/>
	<path class="st1" d="M117.3,123.5H77.9c-3.5,0-6.4-2.9-6.4-6.4c0-3.6,2.9-6.4,6.4-6.4h39.4c3.5,0,6.4,2.9,6.4,6.4
		C123.7,120.6,120.8,123.5,117.3,123.5z"/>
	<path class="st1" d="M71.5,85c0-3.5,2.9-6.4,6.4-6.4h17.8c3.5,0,6.4,2.9,6.4,6.4s-2.9,6.4-6.4,6.4H77.9
		C74.3,91.4,71.5,88.5,71.5,85z"/>
	<path class="st1" d="M117.3,59.3H77.9c-3.5,0-6.4-2.9-6.4-6.4c0-3.6,2.9-6.4,6.4-6.4h39.4c3.5,0,6.4,2.9,6.4,6.4
		C123.7,56.4,120.8,59.3,117.3,59.3z"/>
	<g>
		<path class="st2" d="M257.9,40.3c-26.2,0-43.8,18.3-43.8,45.5c0,27.4,18.1,45.1,46,45.1c15.6,0,28.5-5.8,36.5-16.3l0.1-0.1
			l-10.4-9.4l-0.1,0.2c-3.9,5.2-11.4,11.5-24.8,11.5c-17,0-28.2-9.9-30-26.4h65.9l0-0.2c0,0,0.8-3.3,0.8-8.4
			C298.1,56.5,282.3,40.3,257.9,40.3z M257.9,54.5c13.8,0,22.8,9.3,23.1,23.6h-49.1C234.4,63.5,244.4,54.5,257.9,54.5z"/>
		<rect x="311.2" y="77.6" class="st2" width="33.2" height="12.7"/>
		<path class="st2" d="M504.3,87.6c0,11.7-7.7,29.1-24.2,29.1c-12.7,0-20.3-7.9-20.3-21.2V41.4h-17v54.1c0,21.5,13.5,35.4,34.5,35.4
			c13.2,0,23.5-6.7,29.3-18.9c0.1,2.9,0.9,12,2.2,18.2l0,0.2l12.3-0.6V41.4h-16.8V87.6z"/>
		<path class="st2" d="M576.1,40.3c-15.5,0-21.7,13.1-24,21.1h-0.4c0-4.4-0.8-13.9-2.2-20.3l0-0.2l-11.9,0.6v88.3h16.8V83.5
			c0-17.6,10.5-26.8,20.9-26.8c3.1,0,5.9,0.7,8.1,2l0.2,0.1l4.2-17l-0.2-0.1C584.1,40.8,579.9,40.3,576.1,40.3z"/>
		<path class="st2" d="M647.6,103c-1.5,3.8-2,5.5-2.8,9.6h0c-0.7-3.5-1.1-5-3-9.6l-24.3-61.6h-18.9l36.5,88.4h18.2l36.1-88.4h-17.2
			L647.6,103z"/>
		<path class="st2" d="M738.1,40.3c-26.2,0-43.8,18.3-43.8,45.5c0,27.4,18.1,45.1,46,45.1c15.6,0,28.5-5.8,36.5-16.3l0.1-0.1
			l-10.4-9.4l-0.1,0.2c-3.9,5.2-11.4,11.5-24.8,11.5c-17,0-28.2-9.9-30-26.4h65.9l0-0.2c0,0,0.8-3.3,0.8-8.4
			C778.4,56.5,762.6,40.3,738.1,40.3z M738.1,54.5c13.8,0,22.8,9.3,23.1,23.6h-49.1C714.6,63.5,724.6,54.5,738.1,54.5z"/>
		<path class="st2" d="M378.8,57c1.4-1,4-2.4,9.8-2.6c0.4,0,0.9,0,1.3,0c9.9,0,17.5,3.6,20.3,5.2c2.9,1.6,5.6,3.5,8,5.8l0.1,0.1
			L428.7,54l-0.2-0.1c-3.1-2.6-6.3-4.8-9.8-6.7c-8.4-4.6-18.3-7.1-27.7-7.1c-6.4,0-12.4,1.1-17.7,3.3c-2.5,1-4.5,2.1-6.3,3.5
			c-1.1,0.8-10.4,8.1-10.6,19.4c-0.1,5.6,2,9.8,2.6,11c5.5,9.8,18.6,12.9,30.1,15.6c11.1,2.6,20.8,4.9,20.8,12.5
			c0,7.1-7,11.2-19.2,11.2c-12.4,0-23.5-6.3-28-10.6l-0.1-0.1l-10.3,11.5l0.2,0.1c4.9,4,16.3,13.3,38.1,13.3
			c13.3,0,24.1-3.5,30.5-9.9c4.1-4.2,6.1-9.3,6.1-15.3c-0.3-18.8-17-22.4-31.8-25.5c-11.6-2.5-21.7-4.6-21.7-13.6
			c0-0.7,0.1-2.6,1-4.6C375.5,60,376.9,58.4,378.8,57z"/>
		<path class="st2" d="M857.8,41.4l-27.4,69.9l-27.3-69.9h-18.9l37.4,90.4c-4.9,12.8-9.8,25.6-14.6,38.4h16.5
			c17.2-42.9,34.3-85.9,51.5-128.8H857.8z"/>
	</g>
</g>
</svg>
